<?xml version="1.0" encoding="utf-8" ?><svg xmlns="http://www.w3.org/2000/svg" xmlns:xlink="http://www.w3.org/1999/xlink" width="1024" height="1024" viewBox="0 0 1024 1024"><path fill="#0A0A0A" d="M0 0L1024 0L1024 1024L0 1024L0 0Z"/><path fill="#F3F3F3" d="M413.198 424.99L460.889 425.057C481.602 425.241 501.109 424.645 519.661 435.718C531.35 442.619 539.771 453.932 543.028 467.109C546.499 481.186 544.654 500.133 536.644 512.29C524.507 530.709 512.145 534.718 492.397 539.39C500.342 547.859 507.918 557.032 515.601 565.791C525.449 577.017 536.757 588.811 545.958 600.466L531.674 600.451C527.213 594.494 518.925 585.317 513.89 579.496C502.737 566.57 491.49 553.724 480.151 540.961C468.618 541.173 457.083 541.228 445.548 541.126L445.567 530.718C455.667 530.568 466.363 530.772 476.547 530.743C492.809 530.163 507.928 527.64 520.408 515.922C537.621 499.76 537.969 466.734 521.155 450.199C504.686 434.004 481.339 435.154 459.843 435.18L424.464 435.278C423.636 490.017 425.13 545.855 423.995 600.381L413.352 600.364L413.42 485.889C413.383 465.707 412.896 445.106 413.198 424.99Z"/><path fill="#F3F3F3" d="M161.827 423.207C167.222 422.389 178.917 423.341 184.19 424.375C202.351 427.934 217.401 436.623 227.953 451.962C225.047 454.57 222.706 456.207 219.489 458.397C206.18 443.411 195.789 435.34 175.009 432.634C161.041 430.814 141.408 434.317 130.215 443.387C123.57 448.782 119.411 456.652 118.696 465.181C114.239 512.934 197.711 498.213 223.864 529.918C230.937 538.492 232.626 550.127 231.558 560.902C230.451 572.08 224.314 582.386 215.574 589.332C200.738 601.125 176.636 604.234 158.378 602.22C134.441 600.16 109.027 585.996 98.8727 563.486C101.851 561.813 104.82 560.453 107.906 558.999C112.262 565.989 117.682 572.257 123.971 577.575C139.884 590.791 157.55 594.282 177.665 592.613C200.241 590.741 224.629 577.755 221.252 551.563C217.379 521.523 173.792 518.574 150.816 512.255C140.185 509.331 129.545 505.699 120.803 498.878C104.319 486.079 103.119 457.8 116.359 442.31C127.892 428.817 144.759 424.732 161.827 423.207Z"/><path fill="#F3F3F3" d="M911.521 417.248C912.964 418.688 919.066 433.245 920.596 436.385C933.713 463.31 945.616 491.45 958.977 518.197C956.564 521.492 954.447 524.11 951.812 527.24C937.84 498.931 925.627 469.212 911.443 441.13C905.465 452.827 899.838 465.495 894.208 477.449L865.101 539.435L912.75 539.348C923.168 539.318 933.586 539.379 944.003 539.533C941.338 542.979 938.761 546.044 935.559 548.993C929.41 549.682 916.114 549.346 909.523 549.35L860.172 549.392L836.088 600.349L824.942 600.163C827.935 592.929 832.672 583.744 836.098 576.628L853.838 539.304L911.521 417.248Z"/><path fill="#F3F3F3" d="M647.027 418.794C649.353 422.606 652.193 428.999 654.18 433.164C658.136 441.457 662.049 449.77 665.92 458.103C675.192 478.021 685.668 499.398 694.343 519.248L687.015 527.535C681.774 517.449 675.682 503.822 670.92 493.448C663.024 476.028 654.968 458.681 646.751 441.409C642.301 452.599 634.55 467.542 629.2 478.738L600.185 539.89L646.75 539.956L679.419 539.967C676.83 543.283 674.401 546.597 671.311 549.461C664.474 550.349 651.195 549.957 643.72 549.954L595.051 549.992C587.781 566.911 579.14 583.342 571.758 600.472L560.421 600.419C565.271 589.294 571.674 577.014 576.907 565.73C599.973 516.605 623.346 467.626 647.027 418.794Z"/><path fill="#0A0A0A" d="M40.1406 486.753C40.4105 486.3 40.4628 486.126 40.8356 485.77C44.6154 488.611 49.03 490.776 53.021 493.254C63.6678 499.865 75.7069 505.86 86.3147 512.319C86.2218 513.005 86.2527 512.953 85.7906 513.48C85.2983 516.325 85.3341 516.734 85.5709 519.641C85.7373 519.833 85.9037 520.025 86.0701 520.217C76.8935 524.989 66.6985 529.482 57.4347 534.282C54.8217 535.636 43.4567 541.67 41.4078 542.141C41.2264 541.585 41.2937 541.582 40.9065 541.288C38.813 539.684 37.2694 539.026 35.5117 537.769L34.4362 537.959C34.3141 522.368 33.8794 506.61 34.0888 490.996C34.1026 489.968 34.271 489.9 34.1297 488.756C34.6441 488.647 35.1472 488.703 35.6843 488.713C37.2063 488.357 38.2483 488.068 39.5437 487.155L40.1406 486.753Z"/><path fill="#F3F3F3" d="M34.1297 488.756C34.6441 488.647 35.1472 488.703 35.6843 488.713C35.4436 499.47 35.6257 510.456 35.5512 521.224C35.5149 526.475 35.8631 532.606 35.5117 537.769L34.4362 537.959C34.3141 522.368 33.8794 506.61 34.0888 490.996C34.1026 489.968 34.271 489.9 34.1297 488.756Z"/><path fill="#D2D4D7" d="M40.1406 486.753C40.4105 486.3 40.4628 486.126 40.8356 485.77C44.6154 488.611 49.03 490.776 53.021 493.254C63.6678 499.865 75.7069 505.86 86.3147 512.319C86.2218 513.005 86.2527 512.953 85.7906 513.48C84.3188 512.214 81.4721 511.021 79.6711 509.966C66.5363 502.273 52.8597 495.12 40.1406 486.753Z"/><path fill="#D2D4D7" d="M85.5709 519.641C85.7373 519.833 85.9037 520.025 86.0701 520.217C76.8935 524.989 66.6985 529.482 57.4347 534.282C54.8217 535.636 43.4567 541.67 41.4078 542.141C41.2264 541.585 41.2937 541.582 40.9065 541.288C50.425 536.406 59.9989 531.632 69.6262 526.967C73.5695 525.038 81.6444 520.884 85.5709 519.641Z"/><path fill="#F3F3F3" d="M317.399 451.884C318.67 455.992 317.976 485.583 317.98 492.066L317.936 600.195L307.165 600.293C305.904 598.683 306.544 578.202 306.559 574.692L306.61 532.288L306.657 495.643C306.724 480.914 304.784 462.3 317.399 451.884Z"/><path fill="#F3F3F3" d="M779.355 450.862C779.94 453.388 779.72 462.428 779.694 465.449L779.551 490.014L779.489 600.413L768.718 600.378C768.042 587.187 768.594 569.462 768.595 555.922L768.639 481.132C768.778 467.462 769.343 460.671 779.355 450.862Z"/><path fill="#F3F3F3" d="M240.337 424.994L388.813 424.966L388.751 435.404L240.219 435.293C240.125 431.876 240.256 428.414 240.337 424.994Z"/><path fill="#F3F3F3" d="M700.364 424.615L843.656 424.961L843.631 435.229L700.424 435.084L700.364 424.615Z"/><path fill="#F3F3F3" d="M964.564 533.27C965.979 534.519 994.708 594.499 996.218 599.254L995.768 600.096L994.125 600.218L985.031 600.13C977.423 582.592 967.825 563.875 960.994 546.246C961.815 541.394 962.997 537.933 964.564 533.27Z"/><path fill="#F3F3F3" d="M699.947 532.274C703.628 538.299 711.349 556.303 714.624 563.487C719.706 574.637 727.001 588.618 731.452 599.655L731.009 600.337L729.125 600.408L720.169 600.288C712.799 582.558 703.954 564.541 696.153 546.781C697.067 541.482 698.401 537.408 699.947 532.274Z"/><path fill="#F3F3F3" d="M35.5117 537.769C37.2694 539.026 38.813 539.684 40.9065 541.288C41.2937 541.582 41.2264 541.585 41.4078 542.141C41.3608 542.524 41.2518 543.066 41.3078 543.456C42.0819 548.835 37.3164 553.207 32.006 550.913C30.167 550.137 28.7415 548.62 28.0813 546.736C27.4617 545.001 27.6799 543.376 28.5747 541.785C29.4699 540.163 30.9688 538.959 32.746 538.435C33.315 538.273 33.8621 538.129 34.4362 537.959L35.5117 537.769Z"/><path fill="#F3F3F3" d="M86.3147 512.319L86.9001 511.858C95.2899 505.043 103.563 517.228 94.98 522.382C91.9142 524.223 88.5088 522.607 86.0701 520.217C85.9037 520.025 85.7373 519.833 85.5709 519.641C85.3341 516.734 85.2983 516.325 85.7906 513.48C86.2527 512.953 86.2218 513.005 86.3147 512.319Z"/><path fill="#F3F3F3" d="M34.1297 488.756C30.4833 487.681 27.4778 485.04 28.4505 481.248C30.7539 472.268 43.5366 474.218 40.8356 485.77C40.4628 486.126 40.4105 486.3 40.1406 486.753L39.5437 487.155C38.2483 488.068 37.2063 488.357 35.6843 488.713C35.1472 488.703 34.6441 488.647 34.1297 488.756Z"/></svg>